<svg width="600" height="600" version="1.1" viewBox="0 0 158.75 158.75" xml:space="preserve" xmlns="http://www.w3.org/2000/svg"><path d="m57.354 38.645a46.302 46.302 0 0 1 22.021-5.5716 46.302 46.302 0 0 1 22.212 5.6757" fill="none" stroke="#000" stroke-linecap="square" stroke-linejoin="round" stroke-width="2.6458"/><path d="m38.749 101.59a46.302 46.302 0 0 1-5.6757-22.212 46.302 46.302 0 0 1 5.7498-22.347" fill="none" stroke="#f16d0f" stroke-linecap="square" stroke-linejoin="round" stroke-width="2.6458"/><path d="m101.59 120a46.302 46.302 0 0 1-22.212 5.6757 46.302 46.302 0 0 1-22.212-5.6757" fill="none" stroke="#f16d0f" stroke-linecap="square" stroke-linejoin="round" stroke-width="2.6458"/><path d="m120 57.163a46.302 46.302 0 0 1 5.6757 22.212v0a46.302 46.302 0 0 1-5.6757 22.212" fill="none" stroke="#000" stroke-linecap="square" stroke-linejoin="round" stroke-width="2.6458"/><path d="m14.552 66.212a66.146 66.146 0 0 1 51.662-51.66" fill="none" stroke="#000" stroke-linecap="square" stroke-linejoin="round" stroke-width="2.6458"/><path d="m66.214 144.2a66.146 66.146 0 0 1-51.662-51.66" fill="none" stroke="#000" stroke-linecap="square" stroke-linejoin="round" stroke-width="2.6458"/><path d="m144.2 92.538a66.146 66.146 0 0 1-51.66 51.66" fill="none" stroke="#f16d0f" stroke-linecap="square" stroke-linejoin="round" stroke-width="2.6458"/><path d="m92.536 14.552a66.146 66.146 0 0 1 51.662 51.66" fill="none" stroke="#f16d0f" stroke-linecap="square" stroke-linejoin="round" stroke-width="2.6458"/><circle cx="145.52" cy="79.375" r="6.6146" fill="none" stroke="#000" stroke-linecap="round" stroke-linejoin="round" stroke-width="2.6458"/><circle cx="13.229" cy="79.375" r="6.6146" fill="none" stroke="#f47717" stroke-linecap="round" stroke-linejoin="round" stroke-width="2.6458"/><circle cx="79.375" cy="145.52" r="6.6146" fill="none" stroke="#000" stroke-linecap="round" stroke-linejoin="round" stroke-width="2.6458"/><circle cx="79.375" cy="13.229" r="6.6146" fill="none" stroke="#f47717" stroke-linecap="round" stroke-linejoin="round" stroke-width="2.6458"/><circle cx="112.45" cy="46.302" r="6.6146" fill="none" stroke="#f47717" stroke-linecap="round" stroke-linejoin="round" stroke-width="2.6458"/><circle cx="46.567" cy="46.302" r="6.6146" fill="none" stroke="#f47717" stroke-linecap="round" stroke-linejoin="round" stroke-width="2.6458"/><circle cx="46.302" cy="112.45" r="6.6146" fill="none" stroke="#000" stroke-linecap="round" stroke-linejoin="round" stroke-width="2.6458"/><circle cx="112.45" cy="112.45" r="6.6146" fill="none" stroke="#000" stroke-linecap="round" stroke-linejoin="round" stroke-width="2.6458"/><path d="m79.375 51.594c-6.4736 0-12.435 2.2215-17.161 5.9428l-2.0552-2.0546-0.0041-4e-3a3.3073 3.3073 0 0 0-0.0046-4e-3 3.3073 3.3073 0 0 0 0-5.1e-4 3.3073 3.3073 0 0 0-2.3378-0.96894h-5.2e-4a3.3073 3.3073 0 0 0-2.3384 0.96842 3.3073 3.3073 0 0 0 0 4.6772 3.3073 3.3073 0 0 1 5.2e-4 0l2.0629 2.0634c-3.7213 4.7266-5.9428 10.688-5.9428 17.161 0 6.4739 2.2217 12.435 5.9433 17.162l-2.0634 2.0634a3.3073 3.3073 0 0 1 0 5.2e-4 3.3073 3.3073 0 0 0 0 4.6772 3.3073 3.3073 0 0 0 4.6767 0 3.3073 3.3073 0 0 0 0-5.1e-4l0.0062-6e-3a3.3073 3.3073 0 0 0 0.0036-4e-3l2.0541-2.0536c4.7265 3.721 10.687 5.9423 17.161 5.9423 6.4736 0 12.435-2.2215 17.161-5.9428l2.0562 2.0557a3.3073 3.3073 0 0 0 0.0041 4e-3l0.0047 4e-3a3.3073 3.3073 0 0 0 0 5.1e-4 3.3073 3.3073 0 0 0 4.6772 0 3.3073 3.3073 0 0 0 0-4.6772v-5.2e-4l-2.065-2.064c3.7212-4.7266 5.9428-10.688 5.9428-17.161 0-6.4733-2.2213-12.434-5.9423-17.161l2.0557-2.0557a3.3073 3.3073 0 0 0 8e-3 -8e-3 3.3073 3.3073 0 0 0 5.1e-4 -5.1e-4 3.3073 3.3073 0 0 0 0-4.6767 3.3073 3.3073 0 0 0-2.3389-0.96894 3.3073 3.3073 0 0 0-2.3384 0.96894l-2.064 2.0634c-4.7267-3.7217-10.688-5.9433-17.162-5.9433zm0 2.6464c6.4718 0 12.367 2.437 16.819 6.4446l-2.822 2.8226c-3.7333-3.2963-8.6352-5.2984-13.997-5.2984-5.3619 0-10.264 2.002-13.997 5.2984l-2.8226-2.8226c4.4519-4.0078 10.347-6.4446 16.819-6.4446zm-21.563 1.5875a1.9844 1.9844 0 0 1 1.403 0.58136 1.9844 1.9844 0 0 1 0 2.806 1.9844 1.9844 0 0 1-2.806 0 1.9844 1.9844 0 0 1 0-2.806 1.9844 1.9844 0 0 1 1.403-0.58136zm43.127 0a1.9844 1.9844 0 0 1 1.403 0.58136 1.9844 1.9844 0 0 1 0 2.806 1.9844 1.9844 0 0 1-2.806 0 1.9844 1.9844 0 0 1 0-2.806 1.9844 1.9844 0 0 1 1.403-0.58136zm-21.564 5.0276c4.645 0 8.8852 1.7014 12.133 4.516l-2.8267 2.8272c-2.5249-2.1057-5.7709-3.3745-9.3064-3.3745-3.5353 0-6.7809 1.269-9.3054 3.3745l-2.8272-2.8272c3.2474-2.8147 7.4876-4.516 12.133-4.516zm18.69 1.7002c4.0085 4.4519 6.4461 10.347 6.4461 16.82 0 6.472-2.4373 12.367-6.4456 16.82l-2.8226-2.8226c3.2969-3.7334 5.2994-8.6351 5.2994-13.997 0-5.3621-2.0025-10.264-5.2994-13.997zm-37.381 5.1e-4 2.8226 2.8226c-3.2964 3.7329-5.2984 8.6346-5.2984 13.997 0 5.3484 1.992 10.239 5.2736 13.969l-2.8231 2.8226c-3.9927-4.449-6.4192-10.333-6.4192-16.791 0-6.472 2.4368-12.367 6.4446-16.819zm4.6865 4.6865 2.8272 2.8272c-2.1055 2.5244-3.3745 5.7701-3.3745 9.3054 0 3.5221 1.2593 6.7567 3.3507 9.2775l-2.8277 2.8272c-2.8001-3.2442-4.4917-7.4732-4.4917-12.105 0-4.645 1.7013-8.8851 4.516-12.133zm28.008 0c2.8152 3.2475 4.517 7.4875 4.517 12.133 0 4.6449-1.702 8.8852-4.517 12.133l-2.8267-2.8267c2.1061-2.5249 3.375-5.7709 3.375-9.3064 0-3.5354-1.269-6.7814-3.375-9.3059zm-14.004 0.22634c2.8178 0 5.4021 0.97113 7.4378 2.5983l-2.8432 2.8438c-1.2986-0.92702-2.8854-1.4733-4.5946-1.4733-1.7087 0-3.2951 0.54623-4.5935 1.4728l-2.8438-2.8438c2.0356-1.6268 4.6198-2.5978 7.4373-2.5978zm-9.3085 4.469 2.8438 2.8438c-0.92655 1.2984-1.4728 2.8848-1.4728 4.5935 0 1.6957 0.53788 3.2707 1.4516 4.5636l-2.8453 2.8448c-1.6129-2.0311-2.575-4.6042-2.575-7.4083 0-2.8174 0.97099-5.4017 2.5978-7.4373zm18.617 5.2e-4c1.6264 2.0355 2.5973 4.6197 2.5973 7.4368 0 2.8174-0.97099 5.4017-2.5978 7.4373l-2.8438-2.8438c0.92655-1.2984 1.4728-2.8848 1.4728-4.5935 0-1.7082-0.54617-3.2942-1.4723-4.5925zm-9.309 2.1456c2.9382 0 5.2927 2.353 5.2927 5.2912 0 2.9382-2.3545 5.2927-5.2927 5.2927-2.9382 0-5.2912-2.3545-5.2912-5.2927 0-2.9382 2.353-5.2912 5.2912-5.2912zm-4.6245 11.734c1.3041 0.93992 2.9023 1.495 4.6245 1.495 1.7087 0 3.2951-0.54623 4.5935-1.4728l2.8438 2.8438c-2.0356 1.6268-4.6198 2.5978-7.4373 2.5978-2.831 0-5.4266-0.98063-7.4667-2.6215zm-4.7108 4.7108c2.5287 2.1209 5.7861 3.3993 9.3354 3.3993 3.5355 0 6.7815-1.2689 9.3064-3.375l2.8267 2.8267c-3.2479 2.815-7.4882 4.517-12.133 4.517-4.6587 0-8.9104-1.7118-12.162-4.5418zm-4.6896 4.6896c3.7364 3.3118 8.6494 5.3247 14.025 5.3247 5.362 0 10.264-2.0026 13.997-5.2994l2.8226 2.8226c-4.4523 4.0083-10.348 6.4456-16.82 6.4456-6.4857 0-12.392-2.4475-16.848-6.4709zm-7.538 3.7367a1.9844 1.9844 0 0 1 1.403 0.58136 1.9844 1.9844 0 0 1 0 2.806 1.9844 1.9844 0 0 1-2.806 0 1.9844 1.9844 0 0 1 0-2.806 1.9844 1.9844 0 0 1 1.403-0.58136zm43.127 0a1.9844 1.9844 0 0 1 1.403 0.58136 1.9844 1.9844 0 0 1 0 2.806 1.9844 1.9844 0 0 1-2.806 0 1.9844 1.9844 0 0 1 0-2.806 1.9844 1.9844 0 0 1 1.403-0.58136z" vector-effect="non-scaling-stroke" style="-inkscape-stroke:hairline"/></svg>
